# xmcd
#
# Track frame offsets:
#	150
#	23993
#	90025
#	113148
#	135653
#	178198
#	190530
#	258120
#
# Disc length: 3886 seconds
#
# Revision: 1
# Processed by: cddbd v1.4PL0 Copyright (c) Steve Scherf et al.
# Submitted via: audiograbber 1.80
#
DISCID=590f2c08
DTITLE=Santana - Soul Sacrifice
DYEAR=1900
DGENRE=
TTITLE0=Se a caro
TTITLE1=Medley
TTITLE2=Oye como va
TTITLE3=Hope you're feeling better
TTITLE4=Toussaint L'Ouverture - Evil ways
TTITLE5=Persuasion
TTITLE6=Soul Sacrifice
TTITLE7=Encore
EXTD=
EXTT0=
EXTT1=
EXTT2=
EXTT3=
EXTT4=
EXTT5=
EXTT6=
EXTT7=
PLAYORDER=
